<svg xmlns="http://www.w3.org/2000/svg" xmlns:xlink="http://www.w3.org/1999/xlink" version="1.1" id="Layer_1" x="0px" y="0px" width="100px" height="100px" viewBox="0 0 100 100" enable-background="new 0 0 100 100" xml:space="preserve">
<path fill="#000000" d="M55.191,84.111l-16.97-70.71c-0.031-0.131-0.148-0.224-0.284-0.224H28.75c-0.077,0-0.152,0.031-0.207,0.086  c-0.054,0.053-0.086,0.129-0.086,0.207V84.18c0,0.077,0.032,0.152,0.086,0.206c0.055,0.055,0.13,0.086,0.207,0.086h26.157  c0.089,0,0.174-0.041,0.229-0.11C55.192,84.289,55.212,84.198,55.191,84.111z"/>
<path fill="#000000" d="M57.442,70.155c0.841,0.339,1.749,0.524,2.723,0.524h0.083h-0.006c0.993-0.013,1.912-0.215,2.758-0.571  c0.845-0.357,1.613-0.873,2.266-1.512c0.29-0.284,0.61-0.517,0.946-0.71c1.296-1.112,2.754-2.043,4.357-2.721  c1.94-0.822,4.078-1.287,6.301-1.311h-0.013c0.075,0,0.143-0.001,0.204-0.001c2.186,0,4.295,0.427,6.218,1.204  c1.925,0.776,3.667,1.898,5.153,3.287l0.071,0.068l0.312,0.304c0.655,0.611,1.42,1.102,2.255,1.438  c0.84,0.339,1.749,0.524,2.723,0.524h0.083h-0.005c0.99-0.013,1.911-0.215,2.756-0.571c0.845-0.358,1.615-0.874,2.268-1.512  c0.004-0.001,0.005-0.005,0.007-0.006v-9.216c-0.002,0.003-0.003,0.004-0.007,0.007c-0.652,0.639-1.423,1.154-2.268,1.512  c-0.844,0.357-1.763,0.559-2.752,0.57h-0.086c-0.972,0-1.88-0.187-2.719-0.524c-0.835-0.336-1.601-0.826-2.257-1.438l-0.31-0.303  l-0.07-0.068c-1.487-1.39-3.23-2.513-5.156-3.288c-1.924-0.777-4.033-1.204-6.218-1.204c-0.06,0-0.128,0.001-0.203,0.002  l0.014-0.001c-2.223,0.024-4.36,0.489-6.301,1.311c-1.604,0.679-3.064,1.609-4.361,2.725c-0.335,0.193-0.652,0.425-0.942,0.707  c-0.652,0.64-1.422,1.154-2.266,1.512c-0.845,0.357-1.763,0.559-2.753,0.57h-0.086c-0.972,0-1.879-0.187-2.72-0.524  c-0.834-0.336-1.599-0.826-2.255-1.438l-0.305-0.298l-0.077-0.073c-0.24-0.226-0.498-0.432-0.752-0.643l2.795,11.395  C57.043,69.982,57.24,70.074,57.442,70.155z"/>
<path fill="#000000" d="M98.895,73.125c-0.652,0.64-1.423,1.153-2.268,1.511c-0.845,0.358-1.766,0.562-2.756,0.573h0.005h-0.083  c-0.974,0-1.883-0.186-2.723-0.525c-0.835-0.336-1.6-0.825-2.255-1.438l-0.312-0.302l-0.071-0.069  c-1.486-1.389-3.229-2.511-5.153-3.287c-1.923-0.777-4.032-1.204-6.218-1.204c-0.062,0-0.129,0.001-0.204,0.002h0.013  c-2.223,0.023-4.36,0.488-6.301,1.31c-1.604,0.679-3.062,1.609-4.357,2.722c-0.336,0.193-0.656,0.425-0.946,0.709  c-0.652,0.64-1.421,1.154-2.266,1.511c-0.846,0.358-1.765,0.562-2.758,0.573h0.006h-0.083c-0.974,0-1.882-0.186-2.723-0.525  c-0.202-0.081-0.399-0.172-0.595-0.271l2.487,10.14c0.276,0.014,0.552,0.021,0.83,0.021c0.06,0,0.119,0,0.183-0.002h0.005  c2.222-0.025,4.356-0.49,6.297-1.312c1.603-0.679,3.062-1.608,4.356-2.721c0.336-0.192,0.656-0.426,0.947-0.71  c0.653-0.639,1.421-1.154,2.265-1.511c0.846-0.358,1.765-0.56,2.753-0.57l0.015-0.002h0.076c0.97,0,1.878,0.188,2.717,0.525  c0.834,0.336,1.597,0.826,2.25,1.435l0.312,0.305l0.07,0.068c1.489,1.392,3.233,2.514,5.159,3.291  c1.926,0.776,4.037,1.203,6.223,1.203c0.061,0,0.119,0,0.183-0.002h0.005c1.708-0.019,3.364-0.301,4.921-0.802v-10.65  C98.899,73.121,98.898,73.123,98.895,73.125z"/>
<polygon fill="#000000" points="0.013,69.708 0.013,76.802 0.013,77.273 0.013,84.366 23.568,84.366 23.568,77.273 23.568,76.802   23.568,69.708 "/>
<polygon fill="#000000" points="0.013,51.195 0.013,58.288 0.013,58.76 0.013,65.854 23.568,65.854 23.568,58.76 23.568,58.288   23.568,51.195 "/>
<polygon fill="#000000" points="0.013,32.682 0.013,39.774 0.013,40.248 0.013,47.339 23.568,47.339 23.568,40.248 23.568,39.774   23.568,32.682 "/>
</svg>