<?xml version="1.0" encoding="utf-8"?>
<!-- Generator: Adobe Illustrator 16.0.0, SVG Export Plug-In . SVG Version: 6.00 Build 0)  -->
<!DOCTYPE svg PUBLIC "-//W3C//DTD SVG 1.1//EN" "http://www.w3.org/Graphics/SVG/1.1/DTD/svg11.dtd">
<svg version="1.1" id="Layer_1" xmlns="http://www.w3.org/2000/svg" xmlns:xlink="http://www.w3.org/1999/xlink" x="0px" y="0px"
	 width="100px" height="100px" viewBox="0 0 100 100" enable-background="new 0 0 100 100" xml:space="preserve">
<path fill="#FF6A29" d="M16.376,46.009c0-5.367,4.351-9.718,9.717-9.718c5.367,0,9.717,4.351,9.717,9.718
	c0,5.367-4.351,9.718-9.717,9.718C20.727,55.727,16.376,51.376,16.376,46.009L16.376,46.009z"/>
<path fill="#FF6A29" d="M13.888,27.523c0-4.546,3.684-8.23,8.229-8.23c4.545,0,8.23,3.684,8.23,8.23c0,4.545-3.685,8.231-8.23,8.231
	C17.572,35.754,13.888,32.069,13.888,27.523L13.888,27.523z"/>
<path fill="#FF6A29" d="M24.77,12.969c0-5.195,4.211-9.406,9.407-9.406c5.194,0,9.406,4.211,9.406,9.406
	c0,5.195-4.212,9.407-9.406,9.407C28.98,22.376,24.77,18.164,24.77,12.969L24.77,12.969z"/>
<path fill="#FF6A29" d="M85.627,30.042c0-4.266-3.459-7.724-7.725-7.724c-2.41,0-4.56,1.103-5.979,2.83
	c0.199-0.77,0.304-1.578,0.304-2.41c0-5.367-4.351-9.717-9.718-9.717c-5.364,0-9.717,4.35-9.717,9.717
	c0,5.367,4.353,9.718,9.717,9.718c3.209,0,6.052-1.555,7.822-3.952c-0.103,0.498-0.154,1.012-0.154,1.539
	c0,1.36,0.354,2.638,0.972,3.747c-0.955-0.246-1.955-0.375-2.986-0.375c-6.604,0-11.959,5.354-11.959,11.958
	c0,6.604,5.355,11.958,11.959,11.958c6.605,0,11.959-5.354,11.959-11.958c0-2.898-1.033-5.556-2.746-7.626
	c0.172,0.012,0.348,0.021,0.527,0.021C82.168,37.768,85.627,34.308,85.627,30.042z"/>
<path fill="#FF6A29" d="M70.918,13.867c0-4.102,3.324-7.426,7.424-7.426c4.104,0,7.428,3.324,7.428,7.426
	c0,4.102-3.324,7.427-7.428,7.427C74.242,21.294,70.918,17.969,70.918,13.867L70.918,13.867z"/>
<path fill="#FF6A29" d="M44.014,7.496c0-4.101,3.324-7.426,7.423-7.426c4.102,0,7.428,3.325,7.428,7.426
	c0,4.103-3.326,7.426-7.428,7.426C47.338,14.922,44.014,11.598,44.014,7.496L44.014,7.496z"/>
<path fill="#FF6A29" d="M74.562,64.084v3.805h15.912v19.024h-0.043v10.146c0,1.557-1.261,2.818-2.816,2.818h-5.129
	c-1.557,0-2.818-1.263-2.818-2.818V86.913h-2.764v10.146c0,1.557-1.262,2.818-2.818,2.818h-5.127c-1.557,0-2.818-1.263-2.818-2.818
	V79.079h-2.733v7.746H36.352v-7.746h-2.894v17.979c0,1.556-1.262,2.817-2.818,2.817h-5.128c-1.556,0-2.818-1.263-2.818-2.817V86.913
	H19.93v10.146c0,1.557-1.261,2.818-2.818,2.818h-5.127c-1.557,0-2.817-1.263-2.817-2.818v-29.17H25.09v-3.805H9.167V12.791h2.677
	L15.79,57.32h25.734c-2.312-1.651-3.822-4.354-3.822-7.414c0-3.223,1.676-6.052,4.202-7.67c-5.287-0.85-9.327-5.431-9.327-10.959
	c0-6.132,4.971-11.101,11.103-11.101c6.131,0,11.101,4.969,11.101,11.101c0,4.228-2.363,7.903-5.841,9.778
	c4,0.96,6.972,4.558,6.972,8.852c0,3.06-1.51,5.763-3.822,7.413h31.34l3.943-44.528h3.102v51.293L74.562,64.084L74.562,64.084z
	 M39.467,81.559c0,1.243,1.01,2.254,2.254,2.254c1.246,0,2.255-1.011,2.255-2.254c0-1.246-1.01-2.256-2.255-2.256
	C40.477,79.303,39.467,80.312,39.467,81.559L39.467,81.559z M46.062,81.559c0,1.243,1.01,2.254,2.255,2.254s2.255-1.011,2.255-2.254
	c0-1.246-1.01-2.256-2.255-2.256S46.062,80.312,46.062,81.559L46.062,81.559z M55.865,81.559c0,1.243,1.008,2.254,2.254,2.254
	c1.244,0,2.254-1.011,2.254-2.254c0-1.246-1.01-2.256-2.254-2.256C56.873,79.303,55.865,80.312,55.865,81.559L55.865,81.559z"/>
</svg>
