<?xml version="1.0" encoding="utf-8"?>
<!-- Generator: Adobe Illustrator 16.0.0, SVG Export Plug-In . SVG Version: 6.00 Build 0)  -->
<!DOCTYPE svg PUBLIC "-//W3C//DTD SVG 1.1//EN" "http://www.w3.org/Graphics/SVG/1.1/DTD/svg11.dtd">
<svg version="1.1" id="Layer_1" xmlns="http://www.w3.org/2000/svg" xmlns:xlink="http://www.w3.org/1999/xlink" x="0px" y="0px"
	 width="100px" height="100px" viewBox="0 0 100 100" enable-background="new 0 0 100 100" xml:space="preserve">
<g>
	<g>
		<path fill="#FF6A29" d="M93.075,32.489c0,0,2.321-11-1.814-15.823c-4.524-5.271-13.723-5.407-13.723-5.407
			S72.206,4.034,65.43,2.848c-8.472-1.484-17.557,0.2-17.557,0.2s-5.199-4.613-16.547-2.603c-8.5,1.504-9.284,10.415-9.284,10.415
			s-7.755-0.263-10.896,4.006c-3.406,4.628,0.202,14.42,0.202,14.42s-4.626,6.458-3.229,12.218c1.213,5.002,8.475,5.207,8.475,5.207
			s1.392,7.898,7.669,8.212c5.121,0.254,10.696-2.604,10.696-2.604s6.405,2.902,12.915,2.805c6.706-0.102,13.521-3.203,13.521-3.203
			s4.965,4.66,11.101,6.008c6.177,1.357,11.502-5.605,11.502-5.605s7.729,1.494,10.291-4.407
			C97.064,41.516,93.075,32.489,93.075,32.489z M66.438,58.126c0,0-1.845-0.681-3.43-1.603c-1.316-0.768-2.422-1.803-2.422-1.803
			s-0.207,1.529-0.544,2.528s-1,2.042-1,2.042s-0.119-0.68-0.274-1.43c-0.195-0.939-0.451-1.989-0.603-1.94
			c-1.188,0.396-2.421,0.401-2.421,0.401s0.818,2.488,0.402,4.404c-0.646,2.959-2.223,7.61-2.223,7.61s-1.627-3.662-2.219-6.008
			c-0.516-2.039-0.404-4.606-0.404-4.606s-2.624-0.08-5.044-0.4c-2.097-0.275-4.037-0.803-4.037-0.803l1.009,3.808
			c0,0-1.816-0.759-3.228-2.002c-1.308-1.154-1.615-2.806-1.615-2.806l-2.421-0.602c0,0,1.156,3,4.237,6.209
			C53,72.375,50.625,73.688,49.375,84.75c-0.438,4.829-1.538,9.285-2.389,11.479c-0.631,1.627-3.834,2.807-3.834,2.807
			s0.99,0.8,5.046,0.8c1.918,0,7.303-0.962,9.52-1.138c1.253-0.102,3.101,0.38,4.438,0.398c1.617,0.023,2.625-0.398,2.625-0.398
			s-4.922-1.393-5.65-3.006c-0.561-1.241-1.01-2.807-1.01-2.807s-1.434-5.572-0.246-18.322
			C59.312,63.875,66.438,58.126,66.438,58.126z"/>
	</g>
</g>
</svg>
